<svg width="32" height="32" viewBox="0 0 32 32" fill="none" xmlns="http://www.w3.org/2000/svg">
<rect width="32" height="32" rx="16" fill="black"/>
<rect width="8" height="14" transform="matrix(-1 0 0 1 24 10)" fill="white"/>
<ellipse cx="2.54376" cy="4.5205" rx="2.54376" ry="4.5205" transform="matrix(-0.115857 -0.993266 -0.993266 0.115857 25.2611 26.0533)" fill="black"/>
<ellipse cx="2.54376" cy="4.08215" rx="2.54376" ry="4.08215" transform="matrix(-0.00730579 -0.999973 -0.999973 0.00730579 24.2012 13.086)" fill="white"/>
<ellipse cx="2.54376" cy="4.28178" rx="2.54376" ry="4.28178" transform="matrix(-0.00730579 -0.999973 -0.999973 0.00730579 16.2012 13.0874)" fill="white"/>
<rect x="8" y="10" width="8" height="14" fill="white"/>
<ellipse cx="11.6306" cy="24.0324" rx="2.54376" ry="4.36525" transform="rotate(-83.3469 11.6306 24.0324)" fill="black"/>
<rect width="5" height="8" transform="matrix(-1 0 0 1 8 8)" fill="black"/>
<rect width="4" height="7" transform="matrix(-1 0 0 1 28 8)" fill="black"/>
<line x1="16.05" y1="10" x2="16.05" y2="24" stroke="black" stroke-width="0.1"/>
<path d="M18 10.4L20 10L22 10.4" stroke="black" stroke-width="0.2"/>
<path d="M18 11.4L20 11L22 11.4" stroke="black" stroke-width="0.2"/>
<path d="M18 12.4L20 12L22 12.4" stroke="black" stroke-width="0.2"/>
<path d="M18 13.4L20 13L22 13.4" stroke="black" stroke-width="0.2"/>
<path d="M18 14.4L20 14L22 14.4" stroke="black" stroke-width="0.2"/>
<path d="M18 15.4L20 15L22 15.4" stroke="black" stroke-width="0.2"/>
<path d="M10 19.4L12 19L14 19.4" stroke="black" stroke-width="0.2"/>
<path d="M10 18.4L12 18L14 18.4" stroke="black" stroke-width="0.2"/>
<path d="M10 17.4L12 17L14 17.4" stroke="black" stroke-width="0.2"/>
<path d="M10 16.4L12 16L14 16.4" stroke="black" stroke-width="0.2"/>
<path d="M10 15.4L12 15L14 15.4" stroke="black" stroke-width="0.2"/>
<path d="M10 14.4L12 14L14 14.4" stroke="black" stroke-width="0.2"/>
<path d="M10 13.4L12 13L14 13.4" stroke="black" stroke-width="0.2"/>
<path d="M10 12.4L12 12L14 12.4" stroke="black" stroke-width="0.2"/>
<path d="M10 11.4L12 11L14 11.4" stroke="black" stroke-width="0.2"/>
<path d="M10 10.4L12 10L14 10.4" stroke="black" stroke-width="0.2"/>
<path d="M18 16.4L20 16L22 16.4" stroke="black" stroke-width="0.2"/>
<path d="M18 17.4L20 17L22 17.4" stroke="black" stroke-width="0.2"/>
<path d="M18 18.4L20 18L22 18.4" stroke="black" stroke-width="0.2"/>
<path d="M11.15 8.15H13.85V12.5234L12.5 13.794L11.15 12.5234V8.15Z" fill="#FF0000" stroke="black" stroke-width="0.3"/>
</svg>
